<?xml version="1.0" encoding="utf-8"?>
<!-- Generator: Adobe Illustrator 22.1.0, SVG Export Plug-In . SVG Version: 6.00 Build 0)  -->
<svg version="1.1" id="Слой_1" xmlns="http://www.w3.org/2000/svg" xmlns:xlink="http://www.w3.org/1999/xlink" x="0px" y="0px"
	 viewBox="0 0 256 256" style="enable-background:new 0 0 256 256;" xml:space="preserve">
<style type="text/css">
	.st0{fill:#323232;}
</style>
<g>
	<path class="st0" d="M245.6,101.6l-26.1-23v51.1l25.4-17.2C248.7,110,249,104.6,245.6,101.6z"/>
	<path class="st0" d="M137.1,5.8c-5.2-4.6-13-4.6-18.3,0l-14.3,12.7h46.9L137.1,5.8z"/>
	<path class="st0" d="M11.1,112.5l25.4,17.2V78.6l-26.1,23C7,104.6,7.4,110,11.1,112.5z"/>
	<path class="st0" d="M245.2,124l-68.4,46.5l67.5,65.2c4.4,4.2,11.7,1.1,11.7-5v-101C256,124.2,249.8,120.9,245.2,124z"/>
	<path class="st0" d="M10.8,124C6.2,120.9,0,124.2,0,129.7v101c0,6.1,7.3,9.2,11.7,5l67.5-65.2L10.8,124z"/>
	<path class="st0" d="M168.6,176l-30.2,20.5c-3.2,2.2-6.8,3.2-10.5,3.2c-3.6,0-7.3-1.1-10.5-3.2L87.4,176l-68.1,65.8
		c-4.5,4.3-1.4,11.9,4.8,11.9h208c6.2,0,9.2-7.6,4.8-11.9L168.6,176z"/>
	<path class="st0" d="M149.2,100.5c0-11.7-9.5-21.1-21.1-21.1c-11.7,0-21.1,9.5-21.1,21.1c0,11.7,9.5,21.1,21.1,21.1
		C139.8,121.7,149.2,112.2,149.2,100.5z"/>
	<path class="st0" d="M128,190.2c2.9,0,5.8-0.9,8.3-2.8l75-52V71.3v-0.7V40.5c0-7.6-6.2-13.8-13.8-13.8h-36.6h-6.5h-52.7h-6.5H58.5
		c-7.6,0-13.8,6.2-13.8,13.8v30.1v0.7v64.1l75,52C122.1,189.2,125,190.2,128,190.2z M117.5,159.6c0.3-5.9-3.1-11.5-8.6-13.8
		c-5.2-2.2-12-0.6-15.8,3.6c-1.3,1.4-3.4,1.6-4.8,0.4c-3.7-3-7.1-6.4-10-10.1c-1.1-1.4-1-3.5,0.4-4.8c4.3-4,5.8-10.3,3.5-15.7
		c-2.2-5.4-7.5-8.8-13-8.7c-1.8,0-4-1.3-4.2-3.1c-0.5-4.8-0.5-9.7,0-14.4c0.2-1.8,1.7-3.2,3.7-3.1c6.2,0,11.6-3.4,13.8-8.6
		c2.3-5.5,0.9-11.8-3.5-15.8c-1.4-1.3-1.5-3.4-0.4-4.8c3-3.7,6.5-7.2,10.3-10.1c1.5-1.1,3.5-1,4.8,0.4c3.8,4.1,10.5,5.7,15.7,3.6
		c5.4-2.2,8.9-7.6,8.7-13.5c-0.1-1.8,1.3-3.4,3.1-3.6c4.7-0.5,9.5-0.5,14.3,0c1.9,0.2,3.2,1.8,3.1,3.7c-0.3,5.9,3.1,11.5,8.6,13.8
		c5.2,2.2,12,0.6,15.8-3.6c1.3-1.4,3.4-1.5,4.8-0.4c3.7,3,7.1,6.4,10,10.1c1.1,1.4,1,3.5-0.4,4.8c-4.3,4-5.8,10.3-3.5,15.7
		c2.2,5.3,7.3,8.7,13.1,8.7c1.8,0,3.9,1.3,4.1,3.1c0.5,4.8,0.5,9.6,0,14.4c-0.2,1.9-1.9,3.3-3.7,3.1l-0.8,0c-5.6,0-10.8,3.5-13,8.6
		c-2.3,5.5-0.9,11.8,3.6,15.8c1.4,1.3,1.5,3.4,0.4,4.8c-3,3.8-6.5,7.2-10.3,10.1c-1.5,1.1-3.5,1-4.8-0.4c-3.8-4.1-10.5-5.7-15.7-3.6
		c-5.4,2.2-8.9,7.6-8.7,13.5c0.1,1.8-1.3,3.4-3.1,3.6c-2.3,0.3-4.6,0.4-7,0.4c-2.4,0-4.9-0.1-7.3-0.4
		C118.8,163.1,117.4,161.5,117.5,159.6z"/>
</g>
</svg>
